<svg width="113" height="21" viewBox="0 0 113 21" fill="none" xmlns="http://www.w3.org/2000/svg">
<path d="M0.517914 16.2104L2.58641 16.1803V1.5598L0.517914 1.58999V16.2104ZM10.4129 6.0517C9.48728 6.0517 7.91149 6.4633 7.21245 7.58102V6.2596H5.25945V16.2104H7.21245V10.8255C7.21245 8.86307 8.69348 7.9837 10.1609 7.9837C11.5492 7.9837 12.4748 9.02503 12.4748 10.5733V16.2104H14.4257V10.469C14.4257 9.05522 14.0369 7.89812 13.2686 7.12532C12.5743 6.42182 11.5862 6.0517 10.4129 6.0517ZM20.2989 13.6511L17.3114 6.26196H15.2216L19.3547 16.2104H21.2244L25.3782 6.26196H23.2677L20.2989 13.6511ZM56.7483 6.0517C53.7401 6.0517 51.5532 8.21732 51.5532 11.2051C51.5532 14.1923 53.7886 16.421 56.7483 16.421C57.7876 16.4474 58.81 16.155 59.6782 15.5831C60.5463 15.0111 61.2185 14.187 61.6043 13.2216C61.8605 12.581 61.9838 11.8949 61.9665 11.2051C61.9665 8.21759 59.782 6.05143 56.7483 6.05143V6.0517ZM56.7483 14.5743C54.9226 14.5743 53.534 13.1258 53.534 11.2051C53.534 9.31904 54.9226 7.89812 56.7551 7.89812C57.1888 7.89199 57.6193 7.9737 58.0206 8.13835C58.4219 8.30299 58.7857 8.54715 59.0902 8.85612C59.3946 9.1651 59.6334 9.5325 59.7921 9.93619C59.9507 10.3399 60.0261 10.7715 60.0135 11.2051C60.0135 13.1258 58.6089 14.5743 56.7483 14.5743ZM68.7099 6.05143C67.2682 6.05143 65.9492 6.67881 65.2782 7.67132V6.2596H63.325V20.9869H65.2782V14.8218C65.9445 15.824 67.215 16.4141 68.7306 16.4141C71.6071 16.4141 73.6945 14.2388 73.6945 11.2397C73.6945 8.24068 71.5979 6.05143 68.7099 6.05143ZM68.5411 14.5743C68.1086 14.5756 67.6801 14.4906 67.2808 14.3243C66.8815 14.158 66.5193 13.9138 66.2155 13.6059C65.9117 13.298 65.6723 12.9326 65.5114 12.5311C65.3504 12.1296 65.2712 11.7001 65.2782 11.2676C65.2782 9.34686 66.6805 7.89812 68.5411 7.89812C70.3251 7.89812 71.7205 9.37915 71.7205 11.2676C71.7205 13.1557 70.3529 14.5743 68.5411 14.5743ZM94.0656 7.64822C93.3991 6.64626 92.1286 6.05616 90.6129 6.05616C87.7364 6.05616 85.6493 8.2315 85.6493 11.2303C85.6493 14.2296 87.7459 16.4257 90.6339 16.4257C92.0756 16.4257 93.3946 15.7983 94.0656 14.8058V16.2102H96.0188V0.895935H94.0656V7.64848V7.64822ZM90.7911 14.574C89.0185 14.574 87.6325 13.093 87.6325 11.2048C87.6325 9.31641 88.9815 7.89786 90.7911 7.89786C91.2251 7.89503 91.6553 7.9788 92.0565 8.14428C92.4577 8.30976 92.8218 8.55362 93.1276 8.86158C93.4334 9.16954 93.6747 9.53541 93.8373 9.93777C93.9999 10.3401 94.0807 10.7709 94.0747 11.2048C94.0656 12.8384 92.9156 14.574 90.7911 14.574ZM98.4903 6.2617H100.443V16.2102H98.4903V6.26196V6.2617ZM112.389 6.25933H110.436V7.41643C109.741 6.55097 108.545 6.04645 107.147 6.04645H106.99C104.114 6.04645 102.026 8.22178 102.026 11.2208C102.026 14.2199 104.123 16.416 107.011 16.416H107.175C108.506 16.416 109.734 15.8792 110.442 15.0276V16.2102H112.544V6.25986H112.389V6.25933ZM107.235 14.5672C105.502 14.5207 104.157 13.0631 104.157 11.2025C104.157 9.34187 105.476 7.94196 107.235 7.90022C109.029 7.93172 110.46 9.40802 110.436 11.2025C110.436 12.8153 109.304 14.5231 107.235 14.5696V14.5669V14.5672ZM40.4176 10.1288C39.397 9.8674 38.6752 9.63377 38.6752 8.99747C38.6752 8.28216 39.397 7.78236 40.4339 7.78236C41.1858 7.79749 41.9119 8.05934 42.5003 8.5276L42.5489 8.56435L43.5973 7.11141L43.5508 7.0744C42.6269 6.35483 41.4821 5.97782 40.3113 6.0076C38.5502 6.0076 36.655 6.97701 36.655 9.10142C36.655 10.5824 37.8906 11.3046 38.9251 11.6469C39.2721 11.7626 39.6194 11.8529 39.9711 11.9409C41.0518 12.2186 41.9866 12.4593 41.9866 13.3017C41.9866 13.8915 41.3918 14.5165 40.2903 14.5165C39.2467 14.4876 38.2416 14.1159 37.4301 13.4589L37.3792 13.4219L36.3331 14.9168L36.3772 14.9515C37.5011 15.8433 38.8999 16.317 40.3344 16.2913C42.1163 16.2913 44.0115 15.2292 44.0115 13.2599C44.0115 11.2907 42.1948 10.5848 40.4176 10.1288ZM84.3788 11.066C84.3788 8.0971 82.4604 6.02833 79.6834 6.02833C76.8765 6.02833 74.8401 8.15038 74.8401 11.071C74.8211 11.7706 74.9425 12.4669 75.1973 13.1187C75.4521 13.7705 75.835 14.3647 76.3235 14.8659C77.1977 15.7173 78.3729 16.1888 79.5932 16.1779H79.6858C81.4052 16.148 82.5274 15.8632 83.8905 14.3916L83.932 14.3475L82.5783 13.0586L82.5368 13.1048C82.1944 13.5067 81.767 13.8277 81.2856 14.0446C80.8042 14.2614 80.2807 14.3688 79.7527 14.359C78.2442 14.359 77.0545 13.2529 76.7747 11.5983L84.3116 11.5823H84.3672V11.5267C84.3746 11.4365 84.3746 11.3459 84.3672 11.2558C84.3812 11.219 84.3788 11.1681 84.3788 11.0662V11.066ZM77.0731 10.0619C77.3299 8.62472 78.2717 7.83328 79.732 7.83328C81.1458 7.83328 82.1087 8.6641 82.3216 10.0619H77.0731ZM35.2527 11.0662C35.2527 8.09736 33.3202 6.02833 30.5618 6.02833C27.7549 6.02833 25.7184 8.15038 25.7184 11.071C25.6997 11.7706 25.8214 12.4668 26.0762 13.1187C26.3309 13.7705 26.7137 14.3647 27.2018 14.8662C28.0762 15.7173 29.2513 16.1888 30.4715 16.1779H30.5618C32.2836 16.148 33.406 15.8632 34.7689 14.3916L34.8106 14.3475L33.4569 13.0586L33.4152 13.1048C33.0721 13.5078 32.6437 13.8293 32.161 14.0463C31.6783 14.2632 31.1534 14.37 30.6243 14.359C29.1133 14.359 27.9261 13.2529 27.6462 11.5983L35.1808 11.5823H35.2388V11.5267C35.2448 11.4365 35.2448 11.346 35.2388 11.2558C35.2527 11.219 35.2527 11.1681 35.2527 11.0662ZM27.94 10.0616C28.1991 8.62446 29.1409 7.83302 30.6012 7.83302C32.015 7.83302 32.9779 8.66383 33.1908 10.0616H27.94ZM50.41 14.1435C50.1415 14.2154 49.8641 14.249 49.5862 14.2433C49.3635 14.2535 49.141 14.2177 48.9328 14.138C48.7245 14.0583 48.5349 13.9365 48.3759 13.7802C48.163 13.5303 48.1191 13.1463 48.1191 12.6488V7.9606H50.8959V6.2596H48.1191V3.03872H46.1635V6.2596H45.0899V7.9606H46.1635V12.5473C46.1635 13.6511 46.409 14.4632 46.9135 15.0279C47.2426 15.3914 47.6477 15.6781 48.1 15.8676C48.5522 16.0572 49.0406 16.145 49.5306 16.1249C50.0213 16.1295 50.5101 16.0625 50.9814 15.9259L51.0394 15.9073L50.4677 14.1275L50.41 14.1438V14.1435ZM99.4668 1.49496C99.3008 1.49465 99.1364 1.52746 98.9833 1.59146C98.8302 1.65546 98.6914 1.74936 98.575 1.86768C98.4586 1.98599 98.367 2.12634 98.3055 2.2805C98.244 2.43465 98.214 2.59953 98.217 2.76546C98.2146 2.93022 98.2453 3.09379 98.3072 3.2465C98.3691 3.3992 98.461 3.53795 98.5774 3.65455C98.694 3.77106 98.8328 3.863 98.9855 3.92491C99.1383 3.98682 99.3019 4.01744 99.4668 4.01496C99.633 4.01856 99.7984 3.9889 99.953 3.92773C100.108 3.86656 100.249 3.77511 100.367 3.65875C100.486 3.54236 100.581 3.40336 100.645 3.24994C100.709 3.09653 100.742 2.9318 100.742 2.76546C100.742 2.59803 100.71 2.43213 100.646 2.27736C100.582 2.12259 100.488 1.98204 100.37 1.86386C100.251 1.74568 100.11 1.65222 99.9552 1.58889C99.8002 1.52557 99.6342 1.49364 99.4668 1.49496Z" fill="#230B59"/>
</svg>
